# xmcd
#
# Track frame offsets:
#	150
#	22660
#	48132
#	71722
#	95405
#	119007
#	142280
#	160442
#	182780
#	204835
#	227552
#	255567
#	281427
#
# Disc length: 4087 seconds
#
# Revision: 1
# Processed by: cddbd v1.5.1PL0 Copyright (c) Steve Scherf et al.
# Submitted via: EasyCDDAExtractor 6.5.0.3
#
DISCID=b40ff50d
DTITLE=Bobby Vinton - Roses Are Red My Love! 
DYEAR=1991
DGENRE=AlternRock
TTITLE0=Blueberry Hill - Only You (And You Alone) - Young Love - (They Long To Be
TTITLE0=) Close To You - I Love You Because  
TTITLE1=It's All In The Game - Twilight Time - To Each His Own - When I Fall In L
TTITLE1=ove - I'll Be Seeing You
TTITLE2=Breaking Up Is Hard To Do - Yesterday - Since I Fell For You - Born To Lo
TTITLE2=se - How Can You Mend A Broken Heart
TTITLE3=Love Story - Killing Me Softly With His Song - I Left My Heart In San Fr
TTITLE3=ancisco - The Way We Were
TTITLE4=Too Young - Unchained Melody - Cry - Can't Help Falling In Love 
TTITLE5=Something - Let It Be Me - I Only Have Eyes For You - I Don't Know Why - I
TTITLE5='ll Get By
TTITLE6=Tie A Yellow Ribbon Round The Old Oak Tree - Oh Babe, What Would You Sa
TTITLE6=y? - All My Loving - You Are The Sunshine Of My Life
TTITLE7=Love Me Tender - You Send Me - Sincerely - Love Is  Many Spendored Thing;
TTITLE7=Everybody Loves Somebody 
TTITLE8=Moments To Remember - Love Letters in the Sand - Where Or When - See You 
TTITLE8=In September
TTITLE9=Just The Way You Are - Save The Last Dance For Me - Never My Love - The M
TTITLE9=ost Beautiful Girl - I Can See Clearly Now
TTITLE10=Can't Take My Eyes Off Of You - The Look Of Love - Sunny - Love Will Kee
TTITLE10=p Us Together - Will You Love Me Tomorrow?
TTITLE11=Are You Lonesome Tonight - You Light Up My Life - Three Times A Lady - A
TTITLE11=lways
TTITLE12=Red Roses For A Blue Lady - Have I Told You Lately That I Love You? - P
TTITLE12=aper Roses - A White Sport Coat (And A Pink Carnation) - Any Time
EXTD=
EXTT0=
EXTT1=
EXTT2=
EXTT3=
EXTT4=
EXTT5=
EXTT6=
EXTT7=
EXTT8=
EXTT9=
EXTT10=
EXTT11=
EXTT12=
PLAYORDER=
